HIERARCHY
ROOT Hips
{
	OFFSET 0.000000 87.230942 0.000000
	CHANNELS 6 Xposition Yposition Zposition Xrotation Yrotation Zrotation
	JOINT Pelvis
	{
		OFFSET 0.000000 0.000000 0.000000
		CHANNELS 3 Xrotation Yrotation Zrotation
		JOINT LeftUpLeg
		{
			OFFSET 12.017000 -9.376404 -2.439400
			CHANNELS 3 Xrotation Yrotation Zrotation
			JOINT LeftLeg
			{
				OFFSET -0.007312 -32.846973 2.110600
				CHANNELS 3 Xrotation Yrotation Zrotation
				JOINT LeftFoot
				{
					OFFSET 0.007312 -32.065170 -0.570400
					CHANNELS 3 Xrotation Yrotation Zrotation
					JOINT LeftToeBase
					{
						OFFSET 0.728300 -11.045900 13.180700
						CHANNELS 3 Xrotation Yrotation Zrotation
						End Site
						{
							OFFSET 0.000000 17.212589 0.000000
						}
					}
				}
				JOINT LeftPantLeg
				{
					OFFSET 0.002788 -16.709013 -3.143600
					CHANNELS 3 Xrotation Yrotation Zrotation
					End Site
					{
						OFFSET -0.605125 24.528742 0.000000
					}
				}
			}
			JOINT Left_Butt
			{
				OFFSET -6.630234 1.326584 -3.183700
				CHANNELS 3 Xrotation Yrotation Zrotation
				End Site
				{
					OFFSET -0.498041 20.188049 0.000000
				}
			}
		}
		JOINT RightUpLeg
		{
			OFFSET -11.717000 -9.376404 -2.439400
			CHANNELS 3 Xrotation Yrotation Zrotation
			JOINT RightLeg
			{
				OFFSET -0.003241 -32.846912 2.110600
				CHANNELS 3 Xrotation Yrotation Zrotation
				JOINT RightFoot
				{
					OFFSET 0.003241 -32.065136 -0.570500
					CHANNELS 3 Xrotation Yrotation Zrotation
					JOINT RightToeBase
					{
						OFFSET -0.728300 -11.045901 13.180700
						CHANNELS 3 Xrotation Yrotation Zrotation
						End Site
						{
							OFFSET 0.000000 17.212593 0.000000
						}
					}
				}
				JOINT RightPantLeg
				{
					OFFSET 0.008142 -16.708982 -3.143700
					CHANNELS 3 Xrotation Yrotation Zrotation
					End Site
					{
						OFFSET 0.605088 24.528715 0.000000
					}
				}
			}
			JOINT Right_Butt
			{
				OFFSET 6.630732 1.326584 -3.183700
				CHANNELS 3 Xrotation Yrotation Zrotation
				End Site
				{
					OFFSET 0.498015 20.188240 0.000000
				}
			}
		}
	}
	JOINT Spine
	{
		OFFSET -0.062400 7.848404 3.918300
		CHANNELS 3 Xrotation Yrotation Zrotation
		JOINT Spine1
		{
			OFFSET -0.072800 11.422302 0.713400
			CHANNELS 3 Xrotation Yrotation Zrotation
			JOINT Spine2
			{
				OFFSET -0.083200 13.054001 -1.931600
				CHANNELS 3 Xrotation Yrotation Zrotation
				JOINT Neck
				{
					OFFSET -0.092200 14.121796 -5.138800
					CHANNELS 3 Xrotation Yrotation Zrotation
					JOINT Head
					{
						OFFSET 0.000200 10.447403 -0.842000
						CHANNELS 3 Xrotation Yrotation Zrotation
						JOINT Visor
						{
							OFFSET 0.457100 25.671204 16.550400
							CHANNELS 3 Xrotation Yrotation Zrotation
							End Site
							{
								OFFSET 0.000000 26.061493 0.000000
							}
						}
						JOINT HairMidA
						{
							OFFSET 0.459400 31.585403 8.437400
							CHANNELS 3 Xrotation Yrotation Zrotation
							End Site
							{
								OFFSET 0.000000 26.061493 0.000000
							}
						}
						JOINT HairMidB
						{
							OFFSET 0.464000 33.309204 -8.389700
							CHANNELS 3 Xrotation Yrotation Zrotation
							End Site
							{
								OFFSET 0.000000 26.061493 0.000000
							}
						}
						JOINT HairMidC
						{
							OFFSET 0.466600 27.991196 -17.375099
							CHANNELS 3 Xrotation Yrotation Zrotation
							End Site
							{
								OFFSET 0.000000 26.061493 0.000000
							}
						}
						JOINT HairMidD
						{
							OFFSET 0.467700 17.888092 -21.169500
							CHANNELS 3 Xrotation Yrotation Zrotation
							End Site
							{
								OFFSET 0.000000 26.061493 0.000000
							}
						}
						JOINT HairMidE
						{
							OFFSET 5.325700 3.514603 -14.369699
							CHANNELS 3 Xrotation Yrotation Zrotation
							End Site
							{
								OFFSET 0.000000 26.061493 0.000000
							}
						}
						JOINT HairMidF
						{
							OFFSET -4.394100 3.514603 -14.372400
							CHANNELS 3 Xrotation Yrotation Zrotation
							End Site
							{
								OFFSET 0.000000 26.061493 0.000000
							}
						}
						JOINT HairLeftA
						{
							OFFSET 15.319900 25.746506 2.623300
							CHANNELS 3 Xrotation Yrotation Zrotation
							End Site
							{
								OFFSET 0.000000 26.061493 0.000000
							}
						}
						JOINT HairLeftB
						{
							OFFSET 12.619500 29.289398 -8.731499
							CHANNELS 3 Xrotation Yrotation Zrotation
							End Site
							{
								OFFSET 0.000000 26.061493 0.000000
							}
						}
						JOINT HairLeftC
						{
							OFFSET 15.714800 15.959900 2.909800
							CHANNELS 3 Xrotation Yrotation Zrotation
							End Site
							{
								OFFSET 0.000000 26.061493 0.000000
							}
						}
						JOINT HairLeftD
						{
							OFFSET 16.101700 18.437408 -7.553200
							CHANNELS 3 Xrotation Yrotation Zrotation
							End Site
							{
								OFFSET 0.000000 26.061493 0.000000
							}
						}
						JOINT HairLeftE
						{
							OFFSET 9.731900 17.915009 -18.316799
							CHANNELS 3 Xrotation Yrotation Zrotation
							End Site
							{
								OFFSET 0.000000 26.061493 0.000000
							}
						}
						JOINT HairLeftF
						{
							OFFSET 11.204300 4.953598 -9.668100
							CHANNELS 3 Xrotation Yrotation Zrotation
							End Site
							{
								OFFSET 0.000000 26.061493 0.000000
							}
						}
						JOINT HairRightA
						{
							OFFSET -14.397900 25.746307 2.615100
							CHANNELS 3 Xrotation Yrotation Zrotation
							End Site
							{
								OFFSET 0.000000 26.061493 0.000000
							}
						}
						JOINT HairRightB
						{
							OFFSET -11.691200 29.289200 -8.738199
							CHANNELS 3 Xrotation Yrotation Zrotation
							End Site
							{
								OFFSET 0.000000 26.061493 0.000000
							}
						}
						JOINT HairRightC
						{
							OFFSET -14.792900 15.959702 2.901400
							CHANNELS 3 Xrotation Yrotation Zrotation
							End Site
							{
								OFFSET 0.000000 26.061493 0.000000
							}
						}
						JOINT HairRightD
						{
							OFFSET -15.174000 18.437195 -7.561900
							CHANNELS 3 Xrotation Yrotation Zrotation
							End Site
							{
								OFFSET 0.000000 26.061493 0.000000
							}
						}
						JOINT HairRightE
						{
							OFFSET -8.798200 17.914902 -18.322001
							CHANNELS 3 Xrotation Yrotation Zrotation
							End Site
							{
								OFFSET 0.000000 26.061493 0.000000
							}
						}
						JOINT HairRightF
						{
							OFFSET -10.275200 4.953506 -9.674099
							CHANNELS 3 Xrotation Yrotation Zrotation
							End Site
							{
								OFFSET 0.000000 26.061493 0.000000
							}
						}
					}
				}
				JOINT LeftShoulder
				{
					OFFSET 5.133500 7.341202 -1.867600
					CHANNELS 3 Xrotation Yrotation Zrotation
					JOINT LeftArm
					{
						OFFSET 8.072663 0.936867 -2.176600
						CHANNELS 3 Xrotation Yrotation Zrotation
						JOINT LeftForeArm
						{
							OFFSET 31.271999 0.000000 0.000000
							CHANNELS 3 Xrotation Yrotation Zrotation
							JOINT LeftHand
							{
								OFFSET 31.771030 0.000000 0.000000
								CHANNELS 3 Xrotation Yrotation Zrotation
								JOINT LeftHandThumb1
								{
									OFFSET 2.886520 -2.557846 4.416640
									CHANNELS 3 Xrotation Yrotation Zrotation
									JOINT LeftHandThumb2
									{
										OFFSET 2.371025 -1.368912 1.368911
										CHANNELS 3 Xrotation Yrotation Zrotation
										JOINT LeftHandThumb3
										{
											OFFSET 2.243378 -1.295212 1.295213
											CHANNELS 3 Xrotation Yrotation Zrotation
											End Site
											{
												OFFSET -0.332611 2.876945 0.020015
											}
										}
									}
								}
								JOINT LeftHandIndex1
								{
									OFFSET 8.568985 -0.641945 3.119977
									CHANNELS 3 Xrotation Yrotation Zrotation
									JOINT LeftHandIndex2
									{
										OFFSET 3.348503 0.000000 0.000000
										CHANNELS 3 Xrotation Yrotation Zrotation
										JOINT LeftHandIndex3
										{
											OFFSET 3.314552 0.000000 0.000000
											CHANNELS 3 Xrotation Yrotation Zrotation
											End Site
											{
												OFFSET -1.032898 3.075485 0.678796
											}
										}
									}
								}
								JOINT LeftHandMiddle1
								{
									OFFSET 8.124603 0.000000 0.000000
									CHANNELS 3 Xrotation Yrotation Zrotation
									JOINT LeftHandMiddle2
									{
										OFFSET 4.166275 0.000000 0.000000
										CHANNELS 3 Xrotation Yrotation Zrotation
										JOINT LeftHandMiddle3
										{
											OFFSET 3.018135 0.000000 0.000000
											CHANNELS 3 Xrotation Yrotation Zrotation
											End Site
											{
												OFFSET -1.032700 2.767982 0.617226
											}
										}
									}
								}
								JOINT LeftHandRing1
								{
									OFFSET 8.571686 -0.031357 -2.884048
									CHANNELS 3 Xrotation Yrotation Zrotation
									JOINT LeftHandRing2
									{
										OFFSET 3.671181 0.000000 0.000000
										CHANNELS 3 Xrotation Yrotation Zrotation
										JOINT LeftHandRing3
										{
											OFFSET 2.728851 0.000000 0.000000
											CHANNELS 3 Xrotation Yrotation Zrotation
											End Site
											{
												OFFSET -0.815796 2.539223 0.577389
											}
										}
									}
								}
								JOINT LeftHandPinky1
								{
									OFFSET 7.854515 -0.675232 -5.213020
									CHANNELS 3 Xrotation Yrotation Zrotation
									JOINT LeftHandPinky2
									{
										OFFSET 3.068596 0.000000 0.000000
										CHANNELS 3 Xrotation Yrotation Zrotation
										JOINT LeftHandPinky3
										{
											OFFSET 2.396042 0.000000 0.000000
											CHANNELS 3 Xrotation Yrotation Zrotation
											End Site
											{
												OFFSET -0.524597 2.267998 0.567429
											}
										}
									}
								}
							}
							JOINT LeftSleeve
							{
								OFFSET 19.684509 -0.200119 0.476146
								CHANNELS 3 Xrotation Yrotation Zrotation
								End Site
								{
									OFFSET -0.031017 25.731133 -0.002868
								}
							}
						}
					}
				}
				JOINT RightShoulder
				{
					OFFSET -4.395900 7.341202 -1.870200
					CHANNELS 3 Xrotation Yrotation Zrotation
					JOINT RightArm
					{
						OFFSET -8.071453 0.936867 -2.181100
						CHANNELS 3 Xrotation Yrotation Zrotation
						JOINT RightForeArm
						{
							OFFSET -31.272011 0.000000 0.000000
							CHANNELS 3 Xrotation Yrotation Zrotation
							JOINT RightHand
							{
								OFFSET -31.771019 0.000000 0.000000
								CHANNELS 3 Xrotation Yrotation Zrotation
								JOINT RightHandThumb1
								{
									OFFSET -2.886520 -2.557808 4.416626
									CHANNELS 3 Xrotation Yrotation Zrotation
									JOINT RightHandThumb2
									{
										OFFSET -2.371056 -1.368927 1.368928
										CHANNELS 3 Xrotation Yrotation Zrotation
										JOINT RightHandThumb3
										{
											OFFSET -2.243362 -1.295204 1.295206
											CHANNELS 3 Xrotation Yrotation Zrotation
											End Site
											{
												OFFSET 0.332642 2.876938 0.020047
											}
										}
									}
								}
								JOINT RightHandIndex1
								{
									OFFSET -8.568993 -0.641953 3.120017
									CHANNELS 3 Xrotation Yrotation Zrotation
									JOINT RightHandIndex2
									{
										OFFSET -3.348518 0.000000 0.000000
										CHANNELS 3 Xrotation Yrotation Zrotation
										JOINT RightHandIndex3
										{
											OFFSET -3.314552 0.000000 0.000000
											CHANNELS 3 Xrotation Yrotation Zrotation
											End Site
											{
												OFFSET 1.032898 3.075478 0.678804
											}
										}
									}
								}
								JOINT RightHandMiddle1
								{
									OFFSET -8.124588 0.000000 0.000000
									CHANNELS 3 Xrotation Yrotation Zrotation
									JOINT RightHandMiddle2
									{
										OFFSET -4.166275 0.000000 0.000000
										CHANNELS 3 Xrotation Yrotation Zrotation
										JOINT RightHandMiddle3
										{
											OFFSET -3.018097 0.000000 0.000000
											CHANNELS 3 Xrotation Yrotation Zrotation
											End Site
											{
												OFFSET 1.032700 2.767937 0.617197
											}
										}
									}
								}
								JOINT RightHandRing1
								{
									OFFSET -8.571747 -0.031349 -2.884061
									CHANNELS 3 Xrotation Yrotation Zrotation
									JOINT RightHandRing2
									{
										OFFSET -3.671204 0.000000 0.000000
										CHANNELS 3 Xrotation Yrotation Zrotation
										JOINT RightHandRing3
										{
											OFFSET -2.728874 0.000000 0.000000
											CHANNELS 3 Xrotation Yrotation Zrotation
											End Site
											{
												OFFSET 0.815804 2.539261 0.577413
											}
										}
									}
								}
								JOINT RightHandPinky1
								{
									OFFSET -7.854561 -0.675247 -5.212970
									CHANNELS 3 Xrotation Yrotation Zrotation
									JOINT RightHandPinky2
									{
										OFFSET -3.068550 0.000000 0.000000
										CHANNELS 3 Xrotation Yrotation Zrotation
										JOINT RightHandPinky3
										{
											OFFSET -2.395981 0.000000 0.000000
											CHANNELS 3 Xrotation Yrotation Zrotation
											End Site
											{
												OFFSET 0.524605 2.267952 0.567413
											}
										}
									}
								}
							}
							JOINT RightSleeve
							{
								OFFSET -19.684753 -0.200165 0.476065
								CHANNELS 3 Xrotation Yrotation Zrotation
								End Site
								{
									OFFSET 0.031342 25.731255 -0.002917
								}
							}
						}
					}
				}
				JOINT Hood
				{
					OFFSET 0.369700 14.447800 -5.317800
					CHANNELS 3 Xrotation Yrotation Zrotation
					JOINT Hood1
					{
						OFFSET 0.001700 -5.553802 -5.895100
						CHANNELS 3 Xrotation Yrotation Zrotation
						JOINT Hood2
						{
							OFFSET -0.000200 -8.380501 0.763600
							CHANNELS 3 Xrotation Yrotation Zrotation
							End Site
							{
								OFFSET 0.000000 8.415215 0.000000
							}
						}
					}
				}
				JOINT Left_Breast
				{
					OFFSET 5.682500 3.120102 3.188800
					CHANNELS 3 Xrotation Yrotation Zrotation
					End Site
					{
						OFFSET 0.000000 10.528564 0.000000
					}
				}
				JOINT Right_Breast
				{
					OFFSET -4.947600 3.120102 3.185900
					CHANNELS 3 Xrotation Yrotation Zrotation
					End Site
					{
						OFFSET 0.000000 10.528564 0.000000
					}
				}
				JOINT Whistle
				{
					OFFSET 0.368200 11.471298 0.095400
					CHANNELS 3 Xrotation Yrotation Zrotation
					JOINT Whistle1
					{
						OFFSET -0.002000 -6.349899 7.479800
						CHANNELS 3 Xrotation Yrotation Zrotation
						JOINT Whistle2
						{
							OFFSET -0.001300 -8.217598 4.717600
							CHANNELS 3 Xrotation Yrotation Zrotation
							End Site
							{
								OFFSET 0.000000 9.475479 0.000000
							}
						}
					}
				}
			}
		}
		JOINT Belly
		{
			OFFSET 0.212400 1.593002 3.163700
			CHANNELS 3 Xrotation Yrotation Zrotation
			End Site
			{
				OFFSET 0.000000 7.496635 0.000000
			}
		}
	}
	JOINT FitGrandmaFacialAnim_Joint
	{
		OFFSET 1.150000 -86.211197 -1.220100
		CHANNELS 3 Xrotation Yrotation Zrotation
		End Site
		{
			OFFSET 0.000000 31.666618 0.000000
		}
	}
}
MOTION
Frames: 4
Frame Time: 0.016667
-3.255378 76.371277 9.097332 3.881221 -66.434115 1.691905 -0.000000 0.000000 -0.000000 -22.270674 50.417113 34.658169 59.224222 11.498477 -4.528717 -38.744617 5.991613 4.581583 -0.000000 0.000000 -0.000001 -0.000000 0.000000 -0.000000 0.000001 -0.000000 -0.000001 -14.698451 0.544272 -28.363219 31.033996 3.760319 -0.209894 -21.216705 -2.480442 25.379549 0.000000 0.000002 -0.000000 -0.000003 0.000000 0.000001 -0.000002 -0.000000 -0.000003 7.950367 -7.883731 6.963605 -0.190738 -11.250297 6.028640 -11.447050 -11.562238 5.338306 3.252604 40.080308 6.930933 20.046158 25.136467 -4.753816 0.000001 0.000000 -0.000001 0.000001 0.000000 -0.000001 0.000001 0.000000 -0.000001 0.000001 0.000000 -0.000001 0.000001 0.000000 -0.000001 0.000001 0.000000 -0.000001 0.000001 0.000000 -0.000001 0.000001 0.000000 -0.000001 0.000001 0.000000 -0.000001 0.000001 0.000000 -0.000001 0.000001 0.000000 -0.000001 0.000001 0.000000 -0.000001 0.000001 0.000000 -0.000001 0.000001 0.000000 -0.000001 0.000001 0.000000 -0.000001 0.000001 0.000000 -0.000001 0.000001 0.000000 -0.000001 0.000001 0.000000 -0.000001 0.000001 0.000000 -0.000001 7.036030 -21.717433 28.304172 -17.434020 -22.035034 -5.063767 -0.024469 -18.120278 -4.741180 -3.552980 -6.370908 13.626880 42.313029 -18.874804 16.581748 -1.124752 11.542633 -8.102158 -0.000002 -0.000001 0.000002 -2.169678 -7.707844 -52.286440 -1.077030 -2.178658 -57.035816 0.000002 0.000001 -0.000001 0.593495 2.455629 -56.484397 -1.132167 -2.997390 -65.080214 0.000000 -0.000001 0.000000 1.303222 5.891442 -65.858241 -2.589214 -2.454394 -70.907964 0.000001 0.000001 -0.000001 0.029064 4.541980 -74.162399 -2.684764 -2.230699 -68.744638 -0.000000 0.000000 -0.000002 0.000001 -0.000001 0.000001 0.930707 -15.187701 4.991299 -54.595235 -4.695024 -21.803113 -1.943011 39.705444 7.057004 -51.183457 -15.861554 -14.387252 55.149536 18.649562 -29.698260 -0.442556 -14.180537 7.313136 0.000000 0.000001 0.000002 5.673364 7.585023 36.844161 1.050466 3.824462 68.900250 -0.000001 0.000001 0.000003 -0.125703 1.886100 45.000773 -1.169019 3.204691 68.417691 0.000000 -0.000001 -0.000002 -5.312006 1.216633 58.508828 -0.745198 1.667578 48.011247 0.000003 0.000000 -0.000001 -7.756798 -9.376479 47.264007 -0.526054 1.541611 45.600518 -0.000001 -0.000002 0.000002 -0.000001 -0.000001 -0.000001 -0.000000 0.000000 0.000000 -0.000000 0.000000 0.000000 -0.000000 0.000000 0.000000 -0.000000 0.000000 0.000000 -0.000000 0.000000 0.000000 -0.000000 0.000000 0.000001 0.000000 0.000000 0.000001 0.000000 0.000000 0.000001 0.000000 -0.000000 -0.000000 -0.000000 0.000000 -0.000000 
-3.635574 76.761543 9.709153 0.140554 -63.583413 -1.534507 -0.000000 0.000002 0.000000 -19.174855 50.111643 32.666404 57.267520 11.739959 -4.088620 -39.072176 5.280630 6.151750 0.000000 0.000001 -0.000000 0.000003 0.000001 0.000001 -0.000000 -0.000001 -0.000001 -10.852385 0.403850 -28.523442 32.480524 1.287842 0.785067 -24.112844 -3.579461 22.362558 0.000000 0.000003 0.000000 -0.000000 0.000000 0.000000 -0.000000 -0.000002 0.000000 7.667065 -7.885200 6.877653 -0.769988 -11.249904 5.778991 -12.026595 -11.514016 5.093314 5.352070 37.304731 7.154955 18.938301 24.498249 -3.642631 -0.000000 -0.000000 0.000001 -0.000000 -0.000000 0.000001 -0.000000 -0.000000 0.000001 -0.000000 -0.000000 0.000001 -0.000000 -0.000000 0.000001 -0.000000 -0.000000 0.000001 -0.000000 -0.000000 0.000001 -0.000000 -0.000000 0.000001 -0.000000 -0.000000 0.000001 -0.000000 -0.000000 0.000001 -0.000000 -0.000000 0.000001 -0.000000 -0.000000 0.000001 -0.000000 -0.000000 0.000001 -0.000000 -0.000000 0.000001 -0.000000 -0.000000 0.000001 -0.000000 -0.000000 0.000001 -0.000000 -0.000000 0.000001 -0.000000 -0.000000 0.000001 -0.000000 -0.000000 0.000001 7.857580 -21.919612 30.974457 -21.326289 -25.568323 -2.826547 -0.025389 -17.497927 -4.137774 -2.765588 -6.958309 14.864471 42.927575 -18.897885 16.453205 -0.945103 11.655985 -8.273441 -0.000000 0.000001 0.000002 -2.215071 -7.742200 -53.603871 -1.119934 -2.204967 -58.146124 0.000004 -0.000001 0.000000 0.537333 2.419221 -57.792730 -1.191449 -3.024561 -66.361141 -0.000000 -0.000001 -0.000003 1.239043 5.863665 -67.162254 -2.655524 -2.476328 -72.221348 0.000001 0.000002 -0.000001 -0.038017 4.523870 -75.467628 -2.752242 -2.255893 -70.057708 -0.000001 -0.000001 0.000001 -0.000001 -0.000001 -0.000003 0.146580 -15.459969 2.713259 -57.506115 -5.072665 -23.534928 -0.738070 40.895163 7.076520 -50.027328 -13.816102 -14.796360 55.149536 18.649560 -29.698264 -0.442552 -14.180535 7.313141 0.000001 0.000003 0.000004 5.673367 7.585027 36.844158 1.050467 3.824462 68.900250 0.000000 -0.000000 0.000001 -0.125702 1.886101 45.000766 -1.169021 3.204693 68.417691 -0.000003 0.000001 0.000001 -5.312006 1.216633 58.508828 -0.745199 1.667576 48.011244 0.000003 -0.000003 -0.000002 -7.756799 -9.376479 47.264007 -0.526056 1.541607 45.600515 -0.000003 0.000001 -0.000001 -0.000003 0.000001 -0.000000 -0.000000 0.000000 0.000000 -0.000000 0.000000 0.000000 -0.000000 0.000000 0.000000 -0.000000 0.000000 0.000000 -0.000000 0.000000 0.000000 -0.000000 -0.000000 0.000000 0.000000 -0.000000 0.000000 0.000000 -0.000000 0.000000 0.000001 0.000001 -0.000000 -0.000000 0.000002 0.000000 
-4.004597 77.174660 10.399191 -2.805686 -60.496673 -3.668852 -0.000000 -0.000001 -0.000000 -15.720314 49.851618 30.811366 55.172219 10.681761 -3.965832 -38.668979 5.156997 6.304020 -0.000000 -0.000000 0.000001 -0.000002 0.000001 0.000000 -0.000001 -0.000001 0.000001 -6.688335 0.125242 -29.067537 33.470516 -1.754503 2.669628 -25.808782 -4.939494 19.136599 0.000001 0.000001 0.000000 0.000002 -0.000001 0.000001 0.000001 -0.000000 -0.000000 7.297563 -7.870617 6.688294 -1.527753 -11.209412 5.298613 -12.782775 -11.382082 4.629936 8.338204 34.560378 6.887035 17.862382 23.738210 -2.470276 -0.000000 0.000001 -0.000000 -0.000000 0.000001 -0.000000 -0.000000 0.000001 -0.000000 -0.000000 0.000001 -0.000000 -0.000000 0.000001 -0.000000 -0.000000 0.000001 -0.000000 -0.000000 0.000001 -0.000000 -0.000000 0.000001 -0.000000 -0.000000 0.000001 -0.000000 -0.000000 0.000001 -0.000000 -0.000000 0.000001 -0.000000 -0.000000 0.000001 -0.000000 -0.000000 0.000001 -0.000000 -0.000000 0.000001 -0.000000 -0.000000 0.000001 -0.000000 -0.000000 0.000001 -0.000000 -0.000000 0.000001 -0.000000 -0.000000 0.000001 -0.000000 -0.000000 0.000001 -0.000000 8.584871 -21.755790 33.610149 -27.651778 -28.364611 -2.405159 -0.026672 -18.419770 -2.358924 -5.291961 -5.926803 14.285834 43.353960 -18.915879 16.360969 -0.820355 11.735193 -8.393328 -0.000000 -0.000004 0.000005 -2.247291 -7.764498 -54.521985 -1.150294 -2.222095 -58.919923 0.000004 0.000001 -0.000005 0.497585 2.394588 -58.704479 -1.233070 -3.040921 -67.253779 -0.000001 -0.000005 -0.000001 1.193972 5.845142 -68.070902 -2.701992 -2.490685 -73.136539 0.000001 -0.000000 0.000000 -0.085028 4.512114 -76.377218 -2.799564 -2.272599 -70.972707 -0.000003 0.000000 -0.000001 0.000001 0.000001 0.000003 -0.667858 -15.637500 0.241170 -60.363545 -5.259288 -25.202688 0.541706 42.083227 7.030223 -48.692863 -11.717014 -15.338739 55.149536 18.649563 -29.698267 -0.442555 -14.180537 7.313141 -0.000001 -0.000000 -0.000002 5.673366 7.585025 36.844165 1.050471 3.824462 68.900250 0.000001 0.000001 -0.000000 -0.125703 1.886101 45.000770 -1.169020 3.204691 68.417684 0.000000 0.000001 -0.000003 -5.312008 1.216635 58.508828 -0.745198 1.667577 48.011244 0.000000 -0.000003 0.000001 -7.756795 -9.376485 47.264011 -0.526056 1.541608 45.600518 -0.000001 0.000003 0.000001 -0.000002 -0.000001 -0.000002 -0.000000 0.000000 -0.000001 -0.000000 0.000000 -0.000001 -0.000000 0.000000 -0.000001 -0.000000 0.000000 -0.000001 -0.000000 0.000000 -0.000001 -0.000001 0.000000 -0.000001 -0.000001 0.000000 -0.000001 -0.000001 0.000000 -0.000001 -0.000000 -0.000001 -0.000000 -0.000000 -0.000001 -0.000000 
-4.361451 77.563278 11.348472 -4.354072 -57.480277 -4.471452 0.000000 0.000002 0.000000 -12.187280 49.715181 28.977344 52.745091 8.940870 -4.077673 -37.930206 5.451053 5.097977 0.000001 0.000001 -0.000000 0.000002 0.000001 0.000000 0.000000 -0.000000 -0.000000 -2.754580 -0.401351 -29.934950 33.653414 -5.031937 5.569489 -25.482736 -6.008578 15.304970 -0.000000 0.000000 0.000001 0.000000 -0.000001 0.000002 0.000002 -0.000002 0.000001 6.805076 -7.853862 6.444894 -2.535069 -11.162004 4.689575 -13.787174 -11.218755 4.041876 11.602463 31.881110 6.465376 17.424403 22.943896 -1.329565 -0.000000 0.000004 -0.000002 -0.000000 0.000004 -0.000002 -0.000000 0.000004 -0.000002 -0.000000 0.000004 -0.000002 -0.000000 0.000004 -0.000002 -0.000000 0.000004 -0.000002 -0.000000 0.000004 -0.000002 -0.000000 0.000004 -0.000002 -0.000000 0.000004 -0.000002 -0.000000 0.000004 -0.000002 -0.000000 0.000004 -0.000002 -0.000000 0.000004 -0.000002 -0.000000 0.000004 -0.000002 -0.000000 0.000004 -0.000002 -0.000000 0.000004 -0.000002 -0.000000 0.000004 -0.000002 -0.000000 0.000004 -0.000002 -0.000000 0.000004 -0.000002 -0.000000 0.000004 -0.000002 8.478573 -20.502877 36.126254 -34.534765 -32.188424 -4.145019 -0.027689 -17.857391 -0.308368 -9.297710 -5.515035 15.170699 43.570572 -18.924921 16.312505 -0.757221 11.775693 -8.454602 0.000002 0.000001 0.000001 -2.263420 -7.775111 -54.989552 -1.165438 -2.230505 -59.314066 -0.000002 0.000004 -0.000000 0.478520 2.383202 -59.168938 -1.253591 -3.047959 -67.708458 -0.000003 -0.000000 -0.000001 1.171042 5.836721 -68.533695 -2.726065 -2.497358 -73.602822 0.000000 0.000000 0.000000 -0.109017 4.506860 -76.840461 -2.824315 -2.279929 -71.438820 -0.000002 -0.000001 -0.000001 -0.000002 -0.000002 0.000001 -1.505393 -15.764138 -2.396708 -63.043384 -5.187518 -26.544806 1.665771 43.271858 6.930266 -47.203178 -9.686944 -15.881262 55.149533 18.649563 -29.698264 -0.442552 -14.180537 7.313136 -0.000001 0.000001 0.000002 5.673366 7.585023 36.844168 1.050469 3.824462 68.900257 -0.000002 -0.000001 0.000001 -0.125703 1.886100 45.000773 -1.169018 3.204690 68.417691 0.000002 -0.000002 -0.000004 -5.312006 1.216629 58.508835 -0.745199 1.667571 48.011247 -0.000001 0.000000 0.000001 -7.756796 -9.376484 47.264014 -0.526051 1.541610 45.600518 -0.000002 0.000002 0.000001 0.000002 -0.000002 0.000001 0.000000 -0.000000 0.000000 0.000000 -0.000000 0.000000 0.000000 -0.000000 0.000000 0.000000 -0.000000 0.000000 0.000000 -0.000000 0.000000 0.000000 -0.000000 -0.000002 0.000000 -0.000000 0.000000 0.000000 -0.000000 0.000000 0.000000 0.000001 -0.000000 0.000000 0.000002 0.000000 
